# xmcd
#
# Track frame offsets:
#	150
#	14176
#	31608
#	50908
#	74404
#	94529
#	108788
#	127689
#	144926
#	156073
#	182508
#
# Disc length: 2732 seconds
#
# Revision: 1
# Processed by: cddbd v1.5.2PL0 Copyright (c) Steve Scherf et al.
# Submitted via: audiograbber 1.83.01
#
DISCID=860aaa0b
DTITLE=The Blues Crowns - Person to Person
DYEAR=2006
DGENRE=Blues
TTITLE0=Beautiful Girl
TTITLE1=Big Sweet Mama
TTITLE2=Down Boy Down
TTITLE3=Why I chose tosing the Blues
TTITLE4=I Quit
TTITLE5=She
TTITLE6=Change it
TTITLE7=Person to Person
TTITLE8=Everybody wants her
TTITLE9=100 Miles
TTITLE10=I'm so lonesome Baby
EXTD=
EXTT0=
EXTT1=
EXTT2=
EXTT3=
EXTT4=
EXTT5=
EXTT6=
EXTT7=
EXTT8=
EXTT9=
EXTT10=
PLAYORDER=
